<?xml version="1.0" standalone="no"?>
<!DOCTYPE svg PUBLIC "-//W3C//DTD SVG 20010904//EN"
 "http://www.w3.org/TR/2001/REC-SVG-20010904/DTD/svg10.dtd">
<svg version="1.0" xmlns="http://www.w3.org/2000/svg"
 width="1083.000000pt" height="1280.000000pt" viewBox="0 0 1083.000000 1280.000000"
 preserveAspectRatio="xMidYMid meet">
<g transform="translate(0.000000,1280.000000) scale(0.100000,-0.100000)"
fill="#000000" stroke="none">
<path d="M4340 12790 c-433 -28 -583 -46 -855 -101 -680 -138 -1282 -365
-1751 -660 -190 -120 -324 -230 -504 -415 -443 -456 -828 -1083 -1024 -1666
-154 -461 -230 -1119 -188 -1633 64 -773 198 -1219 777 -2575 538 -1263 743
-1762 808 -1970 61 -193 127 -442 121 -452 -3 -5 1 -23 9 -41 27 -57 95 -390
137 -670 117 -780 119 -1599 6 -2427 -13 -96 -22 -177 -20 -179 2 -2 513 1
1136 8 623 6 1556 12 2073 13 517 0 1203 4 1525 7 l585 6 7 165 c14 319 28
506 43 564 20 77 60 150 140 258 101 137 210 211 387 262 123 35 222 52 543
91 797 96 1158 173 1430 305 230 111 353 254 405 473 48 200 48 475 0 957 -11
107 -20 210 -20 228 0 25 19 60 80 145 150 213 181 347 106 456 -33 47 -32 56
5 111 30 44 31 47 26 135 -4 71 -19 137 -70 315 -98 337 -112 415 -112 650 0
163 3 204 18 247 29 84 97 133 295 213 254 102 316 150 351 268 12 38 21 88
21 110 0 48 -35 150 -72 208 -68 107 -374 468 -713 843 -350 387 -484 556
-531 667 -27 64 -33 194 -43 944 -14 968 -23 1067 -130 1395 -231 709 -514
1178 -945 1567 -369 333 -831 598 -1446 828 -498 186 -892 277 -1390 320 -361
31 -968 46 -1220 30z"/>
</g>
</svg>
