<?xml version="1.0" ?><svg height="42" id="svg3236" version="1.1" width="42" xmlns="http://www.w3.org/2000/svg" xmlns:cc="http://creativecommons.org/ns#" xmlns:dc="http://purl.org/dc/elements/1.1/" xmlns:inkscape="http://www.inkscape.org/namespaces/inkscape" xmlns:rdf="http://www.w3.org/1999/02/22-rdf-syntax-ns#" xmlns:sodipodi="http://sodipodi.sourceforge.net/DTD/sodipodi-0.dtd" xmlns:svg="http://www.w3.org/2000/svg"><defs id="defs3238"/><g id="layer1" transform="translate(0,-1010.3622)"><g id="g3266" transform="translate(-492.08524,657.34812)"><g id="g3795" transform="translate(43.79004,-45.758815)"><g id="g3895"><g id="g3927" transform="translate(-114.00683,33.410715)"><g id="g3602" transform="translate(137.66219,-79.214283)"><g id="g3619" transform="translate(-32.89251,-0.831207)"><g id="g3611"/><path d="M 21.21875 0.75 C 19.688461 0.75 18.413126 1.7254559 17.9375 3.09375 A 1.50015 1.50015 0 0 0 17.125 2.9375 A 1.50015 1.50015 0 0 0 15.8125 4.15625 L 13.3125 15.4375 A 1.50015 1.50015 0 0 0 15.84375 16.8125 L 16.96875 15.6875 L 17.71875 24.75 L 17.75 24.75 L 17.75 30.75 L 17.75 39.75 A 1.50015 1.50015 0 1 0 20.75 39.75 L 20.75 30.75 L 20.75 24.75 L 21.75 24.75 L 21.75 30.75 L 21.75 39.75 A 1.50015 1.50015 0 1 0 24.75 39.75 L 24.75 30.75 L 24.75 24.375 L 25.59375 14.375 C 25.687032 14.0141 25.71875 13.640051 25.71875 13.25 C 25.71875 13.153309 25.693508 13.063925 25.6875 12.96875 L 25.71875 12.75 L 25.6875 12.75 C 25.435711 10.50328 23.532709 8.75 21.21875 8.75 C 19.566852 8.75 18.157685 9.6420208 17.375 10.96875 L 17.34375 11 L 18.375 6.28125 C 19.008609 7.1791919 20.036211 7.75 21.21875 7.75 C 23.151747 7.75 24.71875 6.182994 24.71875 4.25 C 24.71875 2.317006 23.151747 0.75 21.21875 0.75 z " id="path3192" style="fill:#1a1a1a;fill-rule:evenodd;stroke:none" transform="translate(457.53235,445.40767)"/><path d="m 480.98547,456.81397 3.78125,3.8437 -2.19866,-11.01205" id="path3200" style="fill:none;stroke:#1a1a1a;stroke-width:3;stroke-linecap:round;stroke-linejoin:round;stroke-miterlimit:4;stroke-opacity:1;stroke-dasharray:none"/></g></g></g></g></g></g></g></svg>